<svg xmlns="http://www.w3.org/2000/svg" width="23.199" height="22.355" viewBox="0 0 23.199 22.355">
    <defs>
        <style>
            .cls-1{fill:#031d7a}
        </style>
    </defs>
    <g id="Group_153" data-name="Group 153" transform="translate(0 1)">
        <g id="more" transform="translate(0 -1)">
            <path id="Path_112" d="M3.093 22a3.093 3.093 0 1 0 3.093 3.093A3.1 3.1 0 0 0 3.093 22z" class="cls-1" data-name="Path 112" transform="translate(0 -22)"/>
            <path id="Path_113" d="M47.093 22a3.093 3.093 0 1 0 3.093 3.093A3.1 3.1 0 0 0 47.093 22z" class="cls-1" data-name="Path 113" transform="translate(-26.988 -22)"/>
            <path id="Path_114" d="M25.093 22a3.093 3.093 0 1 0 3.093 3.093A3.1 3.1 0 0 0 25.093 22z" class="cls-1" data-name="Path 114" transform="translate(-13.494 -22)"/>
        </g>
        <g id="more-2" data-name="more" transform="translate(0 7.138)">
            <path id="Path_112-2" d="M3.093 22a3.093 3.093 0 1 0 3.093 3.093A3.1 3.1 0 0 0 3.093 22z" class="cls-1" data-name="Path 112" transform="translate(0 -22)"/>
            <path id="Path_113-2" d="M47.093 22a3.093 3.093 0 1 0 3.093 3.093A3.1 3.1 0 0 0 47.093 22z" class="cls-1" data-name="Path 113" transform="translate(-26.988 -22)"/>
            <path id="Path_114-2" d="M25.093 22a3.093 3.093 0 1 0 3.093 3.093A3.1 3.1 0 0 0 25.093 22z" class="cls-1" data-name="Path 114" transform="translate(-13.494 -22)"/>
        </g>
        <g id="more-3" data-name="more" transform="translate(0 15.168)">
            <path id="Path_112-3" d="M3.093 22a3.093 3.093 0 1 0 3.093 3.093A3.1 3.1 0 0 0 3.093 22z" class="cls-1" data-name="Path 112" transform="translate(0 -22)"/>
            <path id="Path_113-3" d="M47.093 22a3.093 3.093 0 1 0 3.093 3.093A3.1 3.1 0 0 0 47.093 22z" class="cls-1" data-name="Path 113" transform="translate(-26.988 -22)"/>
            <path id="Path_114-3" d="M25.093 22a3.093 3.093 0 1 0 3.093 3.093A3.1 3.1 0 0 0 25.093 22z" class="cls-1" data-name="Path 114" transform="translate(-13.494 -22)"/>
        </g>
    </g>
</svg>
